<svg width="40" height="40" viewBox="0 0 40 40" fill="none" xmlns="http://www.w3.org/2000/svg">
<path d="M32.9136 37.5598H33.7997V36.681H32.9136V37.5598Z" fill="white"/>
<path d="M31.692 37.5598H32.5777V36.681H31.692V37.5598Z" fill="white"/>
<path d="M32.9136 38.7726H33.7997V37.8933H32.9136V38.7726Z" fill="white"/>
<path d="M31.692 38.7726H32.5777V37.8933H31.692V38.7726Z" fill="white"/>
<path d="M35.3742 33.884L34.3318 33.442L35.3742 34.5042V33.884Z" fill="white"/>
<mask id="mask0_10_39" style="mask-type:luminance" maskUnits="userSpaceOnUse" x="4" y="0" width="32" height="34">
<path d="M4.51434 0H35.3975V33.207H4.51434V0Z" fill="white"/>
</mask>
<g mask="url(#mask0_10_39)">
<path d="M11.5448 11.6639V20.2055H11.2809V11.5516L11.5448 11.6639ZM13.3391 12.4248V24.5221H12.7299V12.167L13.3391 12.4248ZM14.9725 6.19003L15.9077 5.35898V12.9537L15.4342 12.7523L15.0988 12.6107L14.9725 12.5565V6.19003ZM5.27683 15.6285L6.05273 14.939V30.6059L6.44675 30.2047V14.5896L7.43225 13.7146V25.4806H7.82627V13.3652L8.94065 12.3753V29.0557H9.33381V12.0272L10.1106 11.3368V29.0557H13.2836V28.9683H13.1204V27.4435H15.0988V13.1728L15.4342 13.3148V27.4435H16.001V28.9683H15.8495V29.0557H16.6975V13.289L16.382 13.1547V4.93851L17.5701 3.88324V18.0657H18.0449V3.46234L19.3879 2.26978V30.0644L19.8627 30.5478V1.84888L20.8004 1.01783V31.3599H22.807L22.9697 31.526L23.3907 31.9546H24.8153V30.6364H25.5188V21.1459L26.1883 20.5511V30.6364H26.5281V20.2494L27.3795 19.4945V29.6466H27.7193V19.1937L28.6805 18.3394V31.9546H29.0198V18.0386L29.6907 17.4434V31.9546H30.8233L30.1603 31.674V30.985L32.448 31.9546H32.8724L33.0356 32.1212L33.1736 32.2624L35.3741 33.195V31.6581L30.1603 29.4482V28.7596L35.3741 30.9695V29.4331L30.1603 27.2231V26.5345L35.3741 28.7445V27.2072L30.1603 24.9973V24.3087L35.3741 26.5186V24.9822L30.1603 22.7722V22.0836L35.3741 24.2936V22.7563L30.1603 20.5464V19.8578L35.3741 22.0681V20.5313L30.1603 18.3213V17.6327L35.3741 19.8431V19.1274L30.2449 16.9506L29.6907 16.7148L29.0198 17.307L28.7382 17.5548V15.5003L21.5755 12.4636V11.7754L28.7382 14.8117V13.9643L21.5755 10.9271V10.2385L28.7382 13.2752V12.4265L21.5755 9.38984V8.70125L28.7382 11.7384V10.8905L21.5755 7.85342V7.16482L28.7382 10.2015V9.35283L21.5755 6.31656V5.62754L28.7382 8.66467V7.81683L21.5755 4.7797V4.09111L28.7382 7.12781V6.27912L21.5755 3.24328V2.55468L28.7382 5.59095V4.74312L21.5755 1.70599V1.01783L28.7382 4.0541V3.37024L21.5755 0.328804L20.8004 0L19.8627 0.826743L19.3879 1.24506L18.0449 2.43074L17.5701 2.84949L16.382 3.89744L15.9077 4.31662L14.1832 5.83799V12.2208L13.3391 11.8632L12.7299 11.6045V11.6037L11.5448 11.1006V11.1014L11.2809 10.9891L10.7546 10.7657L10.1106 10.4933L9.73477 10.8234L9.33381 11.1785L8.94065 11.5253L7.82627 12.5092L7.43225 12.8561L6.44675 13.7263L6.05273 14.074L4.62244 15.3363V32.0631L5.27683 31.3964V15.6285Z" fill="white"/>
</g>
<path d="M6.75482 34.7714H7.69475V33.8388H6.75482V34.7714Z" fill="white"/>
<path d="M8.05145 34.7714H8.99138V33.8388H8.05145V34.7714Z" fill="white"/>
<path d="M6.75482 36.0587H7.69475V35.1256H6.75482V36.0587Z" fill="white"/>
<path d="M8.05145 36.0587H8.99138V35.1256H8.05145V36.0587Z" fill="white"/>
<mask id="mask1_10_39" style="mask-type:luminance" maskUnits="userSpaceOnUse" x="0" y="27" width="20" height="11">
<path d="M0 27.9186H19.956V37.614H0V27.9186Z" fill="white"/>
</mask>
<g mask="url(#mask1_10_39)">
<path d="M18.5976 37.5594L16.6974 35.6248L16.4526 35.3757H14.6006L15.0987 34.8674L15.4342 34.5261L15.5166 34.4418L16.6974 33.2397L16.9933 32.9385L18.3794 31.526L18.5425 31.3599H19.8856L19.8626 31.3362L19.3879 30.8525L18.1641 29.6048H15.2957V28.4187H15.4472V27.9931H13.6745V28.4187H13.8372V31.6452L13.093 30.8873V29.6048H7.80884L6.44667 30.9923L6.05265 31.3934L5.27675 32.184L4.62236 32.8507L-0.000488281 37.5594H1.62725L4.62236 34.5106L5.27675 33.8435L6.05265 33.0538L6.44667 32.6527L7.80884 31.2656L8.94057 32.4182L9.33373 32.8184L10.1105 33.6098L13.9891 37.5594H18.5976Z" fill="white"/>
</g>
<path d="M22.4624 34.1827H22.0029V34.6389H22.4624V34.1827Z" fill="white"/>
<path d="M22.0029 35.2677H22.4624V34.8119H22.0029V35.2677Z" fill="white"/>
<path d="M23.096 34.1827H22.6369V34.6389H23.096V34.1827Z" fill="white"/>
<path d="M22.6369 35.2677H23.096V34.8119H22.6369V35.2677Z" fill="white"/>
<mask id="mask2_10_39" style="mask-type:luminance" maskUnits="userSpaceOnUse" x="15" y="31" width="25" height="9">
<path d="M15.5123 31.1137H40V40H15.5123V31.1137Z" fill="white"/>
</mask>
<g mask="url(#mask2_10_39)">
<path d="M35.3741 35.2904L33.0082 32.8812L32.6385 32.5042H27.6598V33.711L26.9572 34.4271V31.6121H27.1408V31.1864H25.369V31.6121H25.5187V32.5042H23.7916L25.5187 34.2636L25.7613 34.511L26.1883 34.9461L26.5137 35.2771H25.2939V38.1382H17.3496L16.6974 38.8027L15.5236 40H26.8153L28.6805 38.0999L29.0198 37.7543L29.6907 37.0713L30.4848 36.2618L30.9626 35.7759L32.0279 34.6896L32.5053 34.2037L32.6385 34.0682L32.9622 34.3978L34.1196 35.5771L35.3741 36.8548L38.4616 40H39.9961L35.3741 35.2904Z" fill="white"/>
</g>
<path d="M24.8392 37.4466V34.8261H25.4363L23.1572 32.5042L22.6178 31.9546L22.5735 31.9094H18.7756L17.39 33.3215L16.6974 34.0264L15.9129 34.8261H16.6857L16.6974 34.8377V34.8261H20.3075L20.8004 34.3243L21.7985 33.3073L22.5735 32.5176L22.7206 32.6678L24.2113 34.1852V37.4466H24.8392Z" fill="white"/>
</svg>
