<svg width="33" height="32" viewBox="0 0 33 32" fill="none" xmlns="http://www.w3.org/2000/svg">
<g clip-path="url(#clip0_7_82)">
<path d="M12.5 29.3333C13.2364 29.3333 13.8334 28.7364 13.8334 28C13.8334 27.2636 13.2364 26.6667 12.5 26.6667C11.7636 26.6667 11.1667 27.2636 11.1667 28C11.1667 28.7364 11.7636 29.3333 12.5 29.3333Z" stroke="white" stroke-width="2" stroke-linecap="round" stroke-linejoin="round"/>
<path d="M27.1666 29.3333C27.903 29.3333 28.5 28.7364 28.5 28C28.5 27.2636 27.903 26.6667 27.1666 26.6667C26.4303 26.6667 25.8333 27.2636 25.8333 28C25.8333 28.7364 26.4303 29.3333 27.1666 29.3333Z" stroke="white" stroke-width="2" stroke-linecap="round" stroke-linejoin="round"/>
<path d="M1.83331 1.33333H7.16665L10.74 19.1867C10.8619 19.8005 11.1959 20.3519 11.6834 20.7444C12.1709 21.1368 12.7809 21.3453 13.4066 21.3333H26.3666C26.9924 21.3453 27.6024 21.1368 28.0899 20.7444C28.5774 20.3519 28.9114 19.8005 29.0333 19.1867L31.1666 8H8.49998" stroke="white" stroke-width="2.5" stroke-linecap="round" stroke-linejoin="round"/>
</g>
<defs>
<clipPath id="clip0_7_82">
<rect width="32" height="32" fill="white" transform="translate(0.5)"/>
</clipPath>
</defs>
</svg>
