<svg width="23" height="22" viewBox="0 0 23 22" fill="none" xmlns="http://www.w3.org/2000/svg">
<path d="M11.5 18.5625C11.5 18.5625 2.9063 13.75 2.9063 7.90626C2.9063 6.87319 3.26422 5.87203 3.91917 5.07312C4.57413 4.27421 5.48565 3.72689 6.49865 3.52429C7.51166 3.32169 8.56357 3.47632 9.47541 3.96187C10.3873 4.44742 11.1027 5.23391 11.5 6.18751V6.18751C11.8974 5.23391 12.6128 4.44742 13.5247 3.96187C14.4365 3.47632 15.4884 3.32169 16.5014 3.52429C17.5144 3.72689 18.426 4.27421 19.0809 5.07312C19.7359 5.87203 20.0938 6.87319 20.0938 7.90626C20.0938 13.75 11.5 18.5625 11.5 18.5625Z" stroke="#9C94FE" stroke-width="1.38209" stroke-linecap="round" stroke-linejoin="round"/>
</svg>
